{"accessors" : [{"bufferView" : 0, "byteOffset" : 0, "componentType" : 5123, "count" : 618, "type" : "SCALAR", "max" : [495], "min" : [0]}, {"bufferView" : 1, "byteOffset" : 0, "componentType" : 5126, "count" : 496, "type" : "VEC3", "max" : [0.05034436658024788, 1.7428656816482544, 0.10828615725040436], "min" : [0.012409000657498837, 1.7049883604049683, 0.08943170309066772], "name" : "POSITION"}, {"bufferView" : 1, "byteOffset" : 12, "componentType" : 5126, "count" : 496, "type" : "VEC3", "max" : [0.9406006932258606, 0.951231062412262, 1.0000042915344238], "min" : [-0.9471116065979004, -0.9485120177268982, -1.0000044107437134], "name" : "NORMAL"}, {"bufferView" : 1, "byteOffset" : 24, "componentType" : 5126, "count" : 496, "type" : "VEC2", "max" : [0.9646214246749878, 0.9818061590194702], "min" : [0.019903719425201416, 0.020990610122680664], "name" : "TEXCOORD_0"}, {"bufferView" : 0, "byteOffset" : 1236, "componentType" : 5123, "count" : 618, "type" : "SCALAR", "max" : [500], "min" : [0]}, {"bufferView" : 2, "byteOffset" : 0, "componentType" : 5126, "count" : 501, "type" : "VEC3", "max" : [-0.01267391350120306, 1.7429041862487793, 0.10828616470098495], "min" : [-0.050458475947380066, 1.704948902130127, 0.08943171054124832], "name" : "POSITION"}, {"bufferView" : 2, "byteOffset" : 12, "componentType" : 5126, "count" : 501, "type" : "VEC3", "max" : [0.9310335516929626, 0.9478711485862732, 1.0000042915344238], "min" : [-0.9491647481918335, -0.9364743232727051, -1.0000044107437134], "name" : "NORMAL"}, {"bufferView" : 2, "byteOffset" : 24, "componentType" : 5126, "count" : 501, "type" : "VEC2", "max" : [0.9585750699043274, 0.966354489326477], "min" : [0.006885886192321777, 0.022762417793273926], "name" : "TEXCOORD_0"}, {"bufferView" : 0, "byteOffset" : 2472, "componentType" : 5123, "count" : 4626, "type" : "SCALAR", "max" : [3708], "min" : [0]}, {"bufferView" : 3, "byteOffset" : 0, "componentType" : 5126, "count" : 3709, "type" : "VEC3", "max" : [0.5314634442329407, 1.0887302160263062, 0.1485922485589981], "min" : [-0.5314712524414062, 0.13165393471717834, -0.09522844105958939], "name" : "POSITION"}, {"bufferView" : 3, "byteOffset" : 12, "componentType" : 5126, "count" : 3709, "type" : "VEC3", "max" : [0.9990517497062683, 0.8005251884460449, 0.9933810830116272], "min" : [-0.9990517497062683, -0.9900118112564087, -0.9918139576911926], "name" : "NORMAL"}, {"bufferView" : 3, "byteOffset" : 24, "componentType" : 5126, "count" : 3709, "type" : "VEC2", "max" : [0.9857610464096069, 0.9750934839248657], "min" : [0.023349180817604065, 0.08261322975158691], "name" : "TEXCOORD_0"}, {"bufferView" : 0, "byteOffset" : 11724, "componentType" : 5123, "count" : 1680, "type" : "SCALAR", "max" : [1392], "min" : [0]}, {"bufferView" : 4, "byteOffset" : 0, "componentType" : 5126, "count" : 1393, "type" : "VEC3", "max" : [0.08158467710018158, 1.7374932765960693, 0.12615080177783966], "min" : [-0.0815846174955368, 1.6953551769256592, -0.0018571156542748213], "name" : "POSITION"}, {"bufferView" : 4, "byteOffset" : 12, "componentType" : 5126, "count" : 1393, "type" : "VEC3", "max" : [1.0000007152557373, 0.9986978769302368, 0.9983044266700745], "min" : [-1.0000007152557373, -0.9986978769302368, -0.9982971549034119], "name" : "NORMAL"}, {"bufferView" : 4, "byteOffset" : 24, "componentType" : 5126, "count" : 1393, "type" : "VEC2", "max" : [0.998046875, 0.998046875], "min" : [0.0019558214116841555, 0.10603249073028564], "name" : "TEXCOORD_0"}, {"bufferView" : 0, "byteOffset" : 15084, "componentType" : 5123, "count" : 12282, "type" : "SCALAR", "max" : [9739], "min" : [0]}, {"bufferView" : 5, "byteOffset" : 0, "componentType" : 5126, "count" : 9740, "type" : "VEC3", "max" : [0.09579435735940933, 1.833084225654602, 0.1417459100484848], "min" : [-0.09610727429389954, 1.5206063985824585, -0.08657772839069366], "name" : "POSITION"}, {"bufferView" : 5, "byteOffset" : 12, "componentType" : 5126, "count" : 9740, "type" : "VEC3", "max" : [0.9992218613624573, 0.9998693466186523, 0.9999847412109375], "min" : [-0.9992174506187439, -0.9999937415122986, -0.9999959468841553], "name" : "NORMAL"}, {"bufferView" : 5, "byteOffset" : 24, "componentType" : 5126, "count" : 9740, "type" : "VEC2", "max" : [0.9943000078201294, 0.9807000160217285], "min" : [0.004999999888241291, 0.004350006580352783], "name" : "TEXCOORD_0"}, {"bufferView" : 0, "byteOffset" : 39648, "componentType" : 5123, "count" : 6708, "type" : "SCALAR", "max" : [5426], "min" : [0]}, {"bufferView" : 6, "byteOffset" : 0, "componentType" : 5126, "count" : 5427, "type" : "VEC3", "max" : [0.2071782648563385, 1.0897915363311768, 0.14649295806884766], "min" : [-0.2071853131055832, 0.07966890931129456, -0.125527486205101], "name" : "POSITION"}, {"bufferView" : 6, "byteOffset" : 12, "componentType" : 5126, "count" : 5427, "type" : "VEC3", "max" : [0.9999430775642395, 0.9991050362586975, 0.99980229139328], "min" : [-0.9999430775642395, -0.9971804618835449, -0.999405562877655], "name" : "NORMAL"}, {"bufferView" : 6, "byteOffset" : 24, "componentType" : 5126, "count" : 5427, "type" : "VEC2", "max" : [0.9871932864189148, 0.9781097769737244], "min" : [0.013636048883199692, 0.009562909603118896], "name" : "TEXCOORD_0"}, {"bufferView" : 0, "byteOffset" : 53064, "componentType" : 5123, "count" : 3444, "type" : "SCALAR", "max" : [2743], "min" : [0]}, {"bufferView" : 7, "byteOffset" : 0, "componentType" : 5126, "count" : 2744, "type" : "VEC3", "max" : [0.2269805371761322, 0.13311772048473358, 0.22643859684467316], "min" : [-0.22698533535003662, -0.0008300853660330176, -0.11737996339797974], "name" : "POSITION"}, {"bufferView" : 7, "byteOffset" : 12, "componentType" : 5126, "count" : 2744, "type" : "VEC3", "max" : [0.999248206615448, 0.9875526428222656, 0.9957243800163269], "min" : [-0.999248206615448, -0.9994363188743591, -0.9835715293884277], "name" : "NORMAL"}, {"bufferView" : 7, "byteOffset" : 24, "componentType" : 5126, "count" : 2744, "type" : "VEC2", "max" : [0.9900428652763367, 0.9804185628890991], "min" : [0.014865286648273468, 0.0112762451171875], "name" : "TEXCOORD_0"}, {"bufferView" : 0, "byteOffset" : 59952, "componentType" : 5123, "count" : 8562, "type" : "SCALAR", "max" : [6931], "min" : [0]}, {"bufferView" : 8, "byteOffset" : 0, "componentType" : 5126, "count" : 6932, "type" : "VEC3", "max" : [0.4984300434589386, 1.6198713779449463, 0.16389982402324677], "min" : [-0.49873173236846924, 0.883201539516449, -0.14329291880130768], "name" : "POSITION"}, {"bufferView" : 8, "byteOffset" : 12, "componentType" : 5126, "count" : 6932, "type" : "VEC3", "max" : [0.9994463324546814, 0.9916992783546448, 0.999817967414856], "min" : [-0.9994463324546814, -0.9975321888923645, -0.9998350143432617], "name" : "NORMAL"}, {"bufferView" : 8, "byteOffset" : 24, "componentType" : 5126, "count" : 6932, "type" : "VEC2", "max" : [0.9876433610916138, 0.9862959384918213], "min" : [0.0017956718802452087, 0.020904183387756348], "name" : "TEXCOORD_0"}, {"bufferView" : 0, "byteOffset" : 77076, "componentType" : 5123, "count" : 300, "type" : "SCALAR", "max" : [241], "min" : [0]}, {"bufferView" : 9, "byteOffset" : 0, "componentType" : 5126, "count" : 242, "type" : "VEC3", "max" : [0.02826656401157379, 1.6747028827667236, 0.12171579152345657], "min" : [-0.028266508132219315, 1.639358639717102, 0.05425762012600899], "name" : "POSITION"}, {"bufferView" : 9, "byteOffset" : 12, "componentType" : 5126, "count" : 242, "type" : "VEC3", "max" : [0.9971882700920105, 0.8775893449783325, 0.9974807500839233], "min" : [-0.9971882700920105, -0.9858412742614746, -0.7650183439254761], "name" : "NORMAL"}, {"bufferView" : 9, "byteOffset" : 24, "componentType" : 5126, "count" : 242, "type" : "VEC2", "max" : [0.9808249473571777, 0.983213484287262], "min" : [0.051069796085357666, 0.02829587459564209], "name" : "TEXCOORD_0"}], "asset" : {"generator" : "Aspose.3D 23.11.1", "version" : "2.0"}, "buffers" : [{"uri" : "data:application/octet-stream;base64,", "byteLength" : 1320532}], "bufferViews" : [{"buffer" : 0, "byteOffset" : 0, "byteLength" : 77676, "target" : 34963}, {"buffer" : 0, "byteOffset" : 77680, "byteLength" : 19776, "byteStride" : 32, "target" : 34962}, {"buffer" : 0, "byteOffset" : 97460, "byteLength" : 19776, "byteStride" : 32, "target" : 34962}, {"buffer" : 0, "byteOffset" : 117240, "byteLength" : 148032, "byteStride" : 32, "target" : 34962}, {"buffer" : 0, "byteOffset" : 265276, "byteLength" : 53760, "byteStride" : 32, "target" : 34962}, {"buffer" : 0, "byteOffset" : 319040, "byteLength" : 393024, "byteStride" : 32, "target" : 34962}, {"buffer" : 0, "byteOffset" : 712068, "byteLength" : 214656, "byteStride" : 32, "target" : 34962}, {"buffer" : 0, "byteOffset" : 926728, "byteLength" : 110208, "byteStride" : 32, "target" : 34962}, {"buffer" : 0, "byteOffset" : 1036940, "byteLength" : 273984, "byteStride" : 32, "target" : 34962}, {"buffer" : 0, "byteOffset" : 1310928, "byteLength" : 9600, "byteStride" : 32, "target" : 34962}], "materials" : [{"name" : "Wolf3D_Eye", "pbrMetallicRoughness" : {"baseColorFactor" : [1, 1, 1, 1], "metallicFactor" : 0, "roughnessFactor" : 1}, "emissiveFactor" : [0, 0, 0], "alphaMode" : "OPAQUE", "doubleSided" : true}, {"name" : "Wolf3D_Eye", "pbrMetallicRoughness" : {"baseColorFactor" : [1, 1, 1, 1], "metallicFactor" : 0, "roughnessFactor" : 1}, "emissiveFactor" : [0, 0, 0], "alphaMode" : "OPAQUE", "doubleSided" : true}, {"name" : "Wolf3D_Body.002", "pbrMetallicRoughness" : {"baseColorFactor" : [1, 0.5711000561714172, 0.39154428243637085, 1], "metallicFactor" : 0, "roughnessFactor" : 0.30000001192092896}, "emissiveFactor" : [0, 0, 0], "alphaMode" : "OPAQUE", "doubleSided" : false}, {"name" : "Wolf3D_Glasses.002", "pbrMetallicRoughness" : {"baseColorFactor" : [0.04431428387761116, 0.04431428387761116, 0.04431428387761116, 1], "metallicFactor" : 1, "roughnessFactor" : 0.30000001192092896}, "emissiveFactor" : [0, 0, 0], "alphaMode" : "OPAQUE", "doubleSided" : false}, {"name" : "Wolf3D_Skin.002", "pbrMetallicRoughness" : {"baseColorFactor" : [1, 0.5711000561714172, 0.39154428243637085, 1], "metallicFactor" : 0, "roughnessFactor" : 0.30000001192092896}, "emissiveFactor" : [0, 0, 0], "alphaMode" : "OPAQUE", "doubleSided" : false}, {"name" : "Wolf3D_Outfit_Bottom.002", "pbrMetallicRoughness" : {"baseColorFactor" : [1, 0.5317423939704895, 0.30481547117233276, 1], "metallicFactor" : 0, "roughnessFactor" : 1}, "emissiveFactor" : [0, 0, 0], "alphaMode" : "OPAQUE", "doubleSided" : false}, {"name" : "Wolf3D_Outfit_Footwear.002", "pbrMetallicRoughness" : {"baseColorFactor" : [0.076657235622406, 0.076657235622406, 0.076657235622406, 1], "metallicFactor" : 1, "roughnessFactor" : 0.34455958008766174}, "emissiveFactor" : [0, 0, 0], "alphaMode" : "OPAQUE", "doubleSided" : false}, {"name" : "Wolf3D_Outfit_Top.002", "pbrMetallicRoughness" : {"baseColorFactor" : [0.29934871196746826, 0.6388806700706482, 1, 1], "metallicFactor" : 0, "roughnessFactor" : 1}, "emissiveFactor" : [0, 0, 0], "alphaMode" : "OPAQUE", "doubleSided" : false}, {"name" : "Wolf3D_Teeth", "pbrMetallicRoughness" : {"baseColorFactor" : [1, 1, 1, 1], "metallicFactor" : 0, "roughnessFactor" : 1}, "emissiveFactor" : [0, 0, 0], "alphaMode" : "OPAQUE", "doubleSided" : true}], "meshes" : [{"primitives" : [{"attributes" : {"POSITION" : 1, "NORMAL" : 2, "TEXCOORD_0" : 3}, "indices" : 0, "material" : 0, "mode" : 4}]}, {"primitives" : [{"attributes" : {"POSITION" : 5, "NORMAL" : 6, "TEXCOORD_0" : 7}, "indices" : 4, "material" : 1, "mode" : 4}]}, {"primitives" : [{"attributes" : {"POSITION" : 9, "NORMAL" : 10, "TEXCOORD_0" : 11}, "indices" : 8, "material" : 2, "mode" : 4}]}, {"primitives" : [{"attributes" : {"POSITION" : 13, "NORMAL" : 14, "TEXCOORD_0" : 15}, "indices" : 12, "material" : 3, "mode" : 4}]}, {"primitives" : [{"attributes" : {"POSITION" : 17, "NORMAL" : 18, "TEXCOORD_0" : 19}, "indices" : 16, "material" : 4, "mode" : 4}]}, {"primitives" : [{"attributes" : {"POSITION" : 21, "NORMAL" : 22, "TEXCOORD_0" : 23}, "indices" : 20, "material" : 5, "mode" : 4}]}, {"primitives" : [{"attributes" : {"POSITION" : 25, "NORMAL" : 26, "TEXCOORD_0" : 27}, "indices" : 24, "material" : 6, "mode" : 4}]}, {"primitives" : [{"attributes" : {"POSITION" : 29, "NORMAL" : 30, "TEXCOORD_0" : 31}, "indices" : 28, "material" : 7, "mode" : 4}]}, {"primitives" : [{"attributes" : {"POSITION" : 33, "NORMAL" : 34, "TEXCOORD_0" : 35}, "indices" : 32, "material" : 8, "mode" : 4}]}], "nodes" : [{"mesh" : 0, "name" : "EyeLeft"}, {"mesh" : 1, "name" : "EyeRight"}, {"mesh" : 2, "name" : "Wolf3D_Body"}, {"mesh" : 3, "name" : "Wolf3D_Glasses"}, {"mesh" : 4, "name" : "Wolf3D_Head"}, {"mesh" : 5, "name" : "Wolf3D_Outfit_Bottom"}, {"mesh" : 6, "name" : "Wolf3D_Outfit_Footwear"}, {"mesh" : 7, "name" : "Wolf3D_Outfit_Top"}, {"mesh" : 8, "name" : "Wolf3D_Teeth"}, {"children" : [0, 1, 2, 3, 4, 5, 6, 7, 8], "name" : "Armature"}], "scene" : 0, "scenes" : [{"nodes" : [9]}]}